<?xml version="1.0" encoding="UTF-8"?>
<svg width="250px" height="222px" viewBox="0 0 250 222" version="1.1" xmlns="http://www.w3.org/2000/svg" xmlns:xlink="http://www.w3.org/1999/xlink">
    <title>tinkoff</title>
    <g id="Page-1" stroke="none" stroke-width="1" fill="none" fill-rule="evenodd">
        <g id="Artboard" transform="translate(-120.000000, -152.000000)">
            <g id="Group" transform="translate(105.000000, 132.000000)">
                <g id="tinkoff" transform="translate(15.000000, 20.000000)">
                    <path d="M246.844843,80.9940147 C246.164825,80.3020258 245.766575,79.6685083 245.203499,78.788674 C244.910681,78.3430018 244.593923,77.8618785 244.242173,77.3457643 C245.21547,76.2200737 246.036372,74.9180479 246.657459,73.4866483 L249.143186,67.8213628 L243.023481,66.9415285 C241.991713,66.7891344 240.326888,66.3549724 238.380755,65.8393186 C234.629374,64.8540516 229.811234,63.5865562 224.559392,63.0354512 C226.35267,62.2495396 227.877072,60.8301105 228.94337,58.9065378 L229.951657,57.0888582 C229.951657,57.0888582 229.68186,54.5432781 228.697514,53.7458564 C229.072744,52.9599448 229.365562,52.0916206 229.565378,51.1413444 L230.39733,47.0828729 L226.481584,45.7459945 C225.872468,45.5349448 225.262891,45.3822744 224.664365,45.2884899 C224.441989,44.5496317 224.11372,43.7633978 223.668048,42.9307551 L221.346685,38.672744 L217.161602,41.1243094 C216.118324,41.7344383 215.239411,42.4383517 214.523941,43.2240792 C213.902855,43.10686 213.234346,43.0479742 212.530847,43.0479742 C212.530847,43.0479742 210.139503,42.7780847 207.501842,43.7399632 L204.12523,40.2327808 L200.127532,35.9633057 C196.388122,31.9637201 191.323665,30.7788674 186.165285,32.7494475 C184.195672,30.7788674 181.124309,29.1484807 176.353131,29.1484807 C174.735267,29.1484807 173.316298,29.3475599 172.484346,29.4533149 C172.484346,29.4533149 165.918969,30.6496317 162.226519,34.156814 L157.748158,32.0220994 C154.746777,36.7490331 149.612339,38.2506906 149.612339,38.2506906 C149.260589,36.8662983 148.662063,35.576151 147.80663,34.3912983 L148.099908,32.7260129 C148.099908,32.6790976 149.107735,27.0372007 152.179558,22.2513812 L157.525322,13.9229742 L149.952118,14.779512 C149.975138,14.0287293 149.940608,13.1372007 149.834715,12.0815378 L149.154696,5.60649171 L143.222836,8.29300184 C142.566298,8.58586556 142.015193,8.87918969 141.49954,9.14907919 L140.327348,6.65069061 L137.607735,8.05805709 C137.337937,7.3895488 136.986188,6.62720994 136.505525,5.74765193 L133.375691,0 L128.93232,4.79728361 C128.474678,5.29019337 128.087937,5.74769797 127.759669,6.18172192 L125.063536,3.49521179 L122.343923,6.193186 C122.003683,5.75916206 121.628453,5.3017035 121.171271,4.80925414 L116.6814,0 L113.539134,5.7711326 C113.058932,6.65069061 112.719153,7.4014733 112.449355,8.06998158 L109.741252,6.6626151 L108.5686,9.16104972 C108.052947,8.89116022 107.501842,8.5978361 106.845304,8.29300184 L100.889963,5.61846225 L100.233425,12.116989 C100.127993,13.1606354 100.093002,14.0401934 100.116483,14.7910221 L92.5313076,13.9348987 L97.888582,22.2628453 C100.971915,27.0372007 101.956722,32.6790976 101.956722,32.7260129 L102.238029,34.3912983 C101.382597,35.5881215 100.77302,36.8782689 100.432781,38.2621547 C100.432781,38.2621547 95.5791897,36.1862799 92.3319521,32.0220994 L87.7601289,34.2037293 C82.5432781,30.6850829 79.3070902,29.3126151 73.6800184,29.1484807 C68.9088398,29.019291 65.837477,30.7788674 63.8678637,32.7494475 C58.6979742,30.7903315 53.6450276,31.9751842 49.9171271,35.9752762 C49.9171271,35.9752762 47.4668508,38.6377993 45.9194291,40.2447514 C44.3720074,41.8631215 42.0860958,43.2006446 42.0860958,43.2006446 C42.0860958,43.2006446 38.8383978,42.4732965 35.497698,43.2355893 C34.7826888,42.4498158 33.8913444,41.7459024 32.8365562,41.1243094 L28.6390424,38.672744 L26.3296501,42.9541897 C25.8844383,43.7753683 25.5676796,44.5496317 25.356814,45.2884899 C24.7592081,45.3822744 24.1496317,45.5349448 23.5400552,45.7459945 L19.6473297,47.1063536 L20.4567219,51.1413444 C20.6556169,52.1151013 20.9369245,52.9834254 21.3236648,53.7688766 C21.1012891,54.2030387 20.9023941,54.6606814 20.7380295,55.1413444 L20.0814917,57.1003683 L21.0778085,58.9185083 C22.1330571,60.8301105 23.6450276,62.2615101 25.4507366,63.0474217 C20.1869245,63.5985267 15.3802947,64.8655617 11.6174033,65.8508287 C9.68278085,66.3549724 8.0179558,66.801105 6.98664825,66.9530387 L0.843462247,67.8448435 L2.23848987,71.0115101 L3.35220994,73.5336096 C3.98526703,74.9415285 4.81767956,76.2435543 5.77900552,77.3692449 C5.41528545,77.8853591 3.86786372,80.3135359 3.17633517,81.0055249 L0.0695211786,84.1606814 L3.04742173,87.4447514 C3.42265193,87.8439227 6.76381215,91.3512891 12.1680479,91.3627993 C13.6450276,91.3627993 15.1104972,91.1049724 16.5644567,90.5888582 C18.0059853,92.8411602 19.7177716,95.128453 21.2767035,96.2541436 C18.4046961,99.6321363 15.1339779,102.564917 10.4802026,104.781768 L6.58793738,106.635359 L8.26427256,111.080571 C9.35451197,113.766575 11.4765193,116.710866 15.5796501,117.836556 C14.7002762,120.464549 14.2785451,122.951197 13.9033149,125.168048 C13.0239411,130.434622 12.6487109,132.616022 8.0179558,134.246777 L3.85635359,135.701197 L5.05202578,139.947514 C6.01335175,143.407459 7.4553407,145.695212 9.01427256,147.208103 L6.24815838,150.257827 C6.24815838,150.257827 12.8130755,155.184622 19.2490792,155.782689 C19.3425414,155.794659 24.8291897,156.146409 27.2909761,153.002762 C28.2757827,156.56814 29.835175,159.853131 31.2536832,162.832413 C34.1611418,168.955341 35.7085635,172.57965 33.7624309,175.887201 L29.3660221,183.347606 L38.0064457,182.983886 C41.7813076,182.831031 45.286372,182.596685 48.322744,181.845764 C48.322744,182.010589 48.3112339,182.162523 48.2992634,182.315378 L47.5957643,188.719613 L55.1689687,187.12477 C55.9663904,186.889963 56.7168508,186.573204 57.3968692,186.209484 C62.0856354,191.698895 70.0575506,195.980203 80.7965009,195.980203 L81.4175875,195.980203 L69.072744,201.047422 L78.0644567,205.727901 C83.9848066,208.812615 90.5621547,211.393646 98.0649171,213.586556 L97.0211786,217.188306 L101.534991,218.513352 C104.137661,219.275783 113.551105,221.774401 125.016575,221.774401 C136.482044,221.774401 145.883978,219.275783 148.498158,218.513352 L153,217.188306 L151.956262,213.598527 C159.471455,211.405157 166.048343,208.824586 171.968232,205.739871 L180.959945,201.059392 L168.603591,195.992173 L169.225138,195.992173 C179.963628,195.992173 187.923573,191.710866 192.61326,186.220994 C193.293278,186.584715 194.043738,186.901473 194.840239,187.13628 L202.413444,188.731584 L201.721915,182.338858 C201.709945,182.186004 201.698895,182.022099 201.698895,181.857735 C204.723297,182.608656 208.240331,182.831031 212.003223,182.995856 L220.643186,183.359116 L216.270718,175.910681 C214.312615,172.603131 215.872007,168.978821 218.767956,162.855893 C220.186464,159.876611 221.745396,156.591621 222.730203,153.026243 C224.395028,154.292818 226.188766,155.055249 227.970534,155.45442 C227.970534,155.45442 229.354052,155.865101 230.678637,155.899632 C234.50046,156.017035 236.411602,154.926335 239.037293,153.27256 L243.808932,150.269797 L241.018416,147.220074 C242.577808,145.718692 244.019797,143.430939 244.981123,139.982965 L246.188306,135.724678 L242.015193,134.270718 C237.372468,132.639503 237.009208,130.458103 236.130295,125.191068 C235.755064,122.974678 235.344383,120.476519 234.453499,117.860037 C238.55663,116.722836 240.666667,113.778085 241.757366,111.104052 L243.422192,106.646869 L239.529926,104.793278 C234.875691,102.576888 231.604512,99.6441068 228.720994,96.2656538 C230.291436,95.1399632 232.003223,92.8522099 233.457182,90.6003683 C234.898711,91.1169429 236.364641,91.3627993 237.853591,91.3747698 C243.257827,91.3747698 246.610497,87.8674033 246.974217,87.468232 L249.951657,84.1841621 L246.844843,80.9940147 Z" id="Path" fill="#FFFFFF" fill-rule="nonzero"></path>
                    <path d="M86.9185083,138.797882 L86.9185083,103.022099 C86.9185083,99.6910681 85.9571823,96.359116 84.808011,93.2983425 L112.557551,93.2983425 C115.101289,96.7932781 119.720074,99.1390424 125.019337,99.1390424 C130.294659,99.1390424 134.913444,96.7932781 137.469153,93.2983425 L165.218232,93.2983425 C164.04558,96.3710866 163.096225,99.6910681 163.096225,103.022099 L163.096225,138.797882 L86.9185083,138.797882 Z M125.007366,187.686924 C121.127072,183.828269 118.360037,183.405617 107.903315,183.405617 C95.4060773,183.405617 86.9185083,176.074586 86.9185083,164.356814 L86.9185083,140.89733 L163.084715,140.89733 L163.084715,164.356814 C163.084715,176.074586 154.608656,183.405617 142.088398,183.405617 C131.642726,183.394107 128.875691,183.828269 125.007366,187.686924 Z" id="Shape" fill="#FFDD2D"></path>
                    <path d="M91.3365562,192.110037 L91.3365562,199.253683 L85.1353591,201.751842 C90.3752302,204.133057 96.8821363,206.502302 104.525322,208.25 L108.042357,196.790055 C100.540055,195.253683 95.3107735,193.646869 91.3365562,192.110037 Z" id="Path" fill="#FFFFFF" fill-rule="nonzero"></path>
                    <path d="M125.004144,201.787293 C117.676796,201.787293 111.510589,201.024862 109.048803,200.461786 L105.332413,212.484807 C111.17081,213.915746 118.005064,214.971455 125.004144,214.971455 C131.979282,214.971455 138.813996,213.927716 144.675875,212.484807 L140.947974,200.461786 C138.485727,201.036372 132.343002,201.787293 125.004144,201.787293 Z" id="Path" fill="#FFFFFF" fill-rule="nonzero"></path>
                    <path d="M158.674954,192.110037 C154.689227,193.646869 149.472376,195.242173 141.969153,196.802026 L145.498158,208.261971 C153.153775,206.513812 159.63628,204.144567 164.876611,201.763812 L158.686924,199.265193 L158.686924,192.110037 L158.674954,192.110037 Z" id="Path" fill="#FFFFFF" fill-rule="nonzero"></path>
                    <path d="M78.3457643,76.8646409 C88.0524862,71.621547 111.780387,60.0796501 95.6956722,47.6339779 C93.5036832,45.9451657 91.0888582,44.4200737 89.0603131,42.531768 C86.5520258,44.4669429 89.9986188,49.2762431 90.8660221,51.0359116 C90.8660221,51.0359116 85.5082873,51.575046 84.230663,51.575046 C75.9539595,51.5400552 67.2785451,46.6372007 71.674954,37.2415746 C68.3807551,37.9220534 67.9820442,41.0889963 66.9742173,43.7984346 C64.8637201,42.3676335 61.194291,39.2944751 58.3692449,39.7284991 C60.6666667,47.0824125 70.3388582,53.7104052 77.8411602,55.211326 C70.2564457,59.3402394 56.1883057,62.4134438 48.7914365,53.5220994 C43.5976059,63.575046 50.8310313,67.7739411 57.9235727,73.0405157 C30.924954,85.3687845 34.9111418,99.1979742 17.1970534,110.083333 C19.4944751,111.162063 29.7407919,108.992634 30.6551565,108.86326 C26.8098527,113.848527 25.0161142,115.959945 23.890884,118.388122 C22.8121547,120.663444 22.3314917,123.232505 21.2651934,128.768877 C20.4323204,133.144107 18.9083794,137.507366 13.5860958,140.404696 C15.6731123,144.1814 20.3038674,141.225599 22.2380295,140.721455 C21.9797422,141.120166 21.3232044,145.671271 19.5883978,147.864641 C28.6855433,147.278085 24.4769797,128.088398 33.5745856,132.709945 C36.1418048,134.00046 36.9157459,137.026703 35.7311234,139.501381 C29.752302,151.84116 43.339779,162.714549 42.6008287,173.529466 C45.9424494,173.505985 49.4010129,173.412523 51.5810313,168.896409 C52.7186924,171.14825 54.4769797,174.315378 55.4617864,177.365101 L58.1813996,172.732044 C59.8577348,180.403315 67.0092081,187.488029 76.6694291,188.121547 C72.0621547,180.825506 77.5837937,170.866943 66.3881215,160.274862 C67.7826888,159.148711 71.0069061,156.978821 72.1556169,155.500921 C58.4162063,157.119705 44.0782689,146.245856 50.5847145,141.085175 C54.8402394,137.718692 56.7044199,144.709484 63.269337,143.536372 L60.7021179,141.319521 C61.604512,140.427716 62.6362799,139.267035 63.7030387,138.387201 C60.9129834,138.047422 57.8646409,136.264273 57.8646409,136.264273 L59.5294659,133.507366 C43.4337017,133.483886 43.0230203,121.168048 49.5644567,120.675414 C52.6362799,120.452578 56.6104972,126.117864 66.5165746,124.932781 C65.2504604,123.408379 64.7467772,121.097606 64.1482505,119.396869 C66.5400552,119.174033 69.3540516,119.197514 71.6164825,118.094843 C66.7748619,117.473297 65.5552486,115.842541 61.5225599,112.793278 L66.2002762,111.080571 C59.412523,107.690608 59.822744,101.790516 59.6118785,95.6436464 C63.1639042,97.6846225 67.337477,100.85221 71.7918969,99.3858195 C72.8471455,99.0336096 73.5271639,98.5414365 73.5506446,97.4387661 C67.196593,94.8936464 63.1174033,85.0989871 78.3457643,76.8646409 Z M66.7513812,77.8264273 C58.2518416,86.9171271 61.9327808,92.3595764 63.6445672,94.0368324 C60.4788214,93.356814 55.7550645,89.3213628 56.8328729,85.4157459 C55.8255064,86.623849 54.7937385,87.9373849 53.7384899,89.286372 C51.6279926,92.1017495 49.7407919,94.8581952 48.0644567,97.5326888 C45.485267,105.203499 50.2094843,113.121547 58.2518416,116.628453 C49.3186004,115.314917 45.3093923,107.362339 45.3328729,102.29512 C41.0653775,110.365101 39.0253223,117.731123 39.2131676,123.912983 C39.2951197,126.211786 39.4944751,128.358195 39.7992634,130.387201 C41.8512891,134.281768 45.145488,135.713168 51.0184162,136.428177 C45.6846225,136.768416 42.859116,136.522099 40.5382136,134.082413 C44.1721915,149.718232 61.1708103,163.254144 68.0879374,174.843002 C61.1588398,165.834715 46.8218232,152.416206 41.8043278,142.71547 C41.4171271,146.222376 42.3549724,155.207643 46.71593,160.732044 C40.2914365,154.410221 39.7877532,144.838398 40.2099448,139.231584 C38.5801105,135.196593 37.5488029,130.692449 37.407919,125.566759 C37.2785451,120.851289 37.606814,116.757827 38.3222836,113.086096 C34.2656538,118.857274 28.4042357,121.085635 25.5202578,129.871547 C26.0828729,118.540055 34.5359116,118.364641 40.8664825,104.605433 C43.3162983,98.5883978 46.8798343,93.3918048 50.8195212,87.5036832 C45.8135359,89.1459484 42.0621547,90.3186004 36.2702578,96.6643646 C40.3853591,86.9286372 64.160221,75.985267 75.0515654,65.3927256 C71.7803867,66.085175 58.4277164,66.424954 52.8825967,62.7186924 C62.929558,65.4396869 85.2859116,62.3314917 93.7265193,56.5603131 C87.9000921,64.9470534 75.2154696,65.4281768 59.7762431,82.1081952 C61.7453959,80.5359116 64.371547,78.9525783 66.7513812,77.8264273 Z" id="Shape" fill="#FFFFFF" fill-rule="nonzero"></path>
                    <path d="M228.733425,128.769797 C227.667127,123.233425 227.197974,120.664365 226.119245,118.389042 C225.005985,115.960866 223.200276,113.849908 219.343462,108.86418 C220.257827,108.993554 230.527624,111.163904 232.813536,110.084715 C215.099448,99.1993554 219.085175,85.3697053 192.075046,73.0418969 C199.167587,67.7753223 206.401013,63.5759669 201.207182,53.5119705 C193.810313,62.414825 179.742173,59.3416206 172.156998,55.2011971 C179.671731,53.6993554 189.331492,47.0842541 191.629374,39.7175414 C188.792357,39.2835175 185.122928,42.3566298 183.012891,43.7759669 C182.004604,41.0665285 181.617403,37.8995856 178.323204,37.2075967 C182.719613,46.6146409 174.032689,51.5174954 165.744475,51.5529466 C164.478361,51.5529466 159.132597,51.0133517 159.132597,51.0133517 C159.98849,49.2536832 163.435083,44.4449816 160.914365,42.5093002 C158.88628,44.4095764 156.494936,45.922698 154.290976,47.6118785 C138.194751,60.0570902 161.946133,71.6109576 171.652855,76.842081 C186.858195,85.0764273 182.813536,94.8710866 176.447974,97.3807551 C176.471455,98.4834254 177.151473,98.9765193 178.218232,99.3282689 C182.649171,100.806169 186.846685,97.6395028 190.37523,95.5865562 C190.175875,101.732965 190.597606,107.644567 183.810313,111.02302 L188.476059,112.735267 C184.44337,115.784991 183.235267,117.415746 178.393646,118.037293 C180.644567,119.139963 183.482044,119.116483 185.861878,119.339319 C185.251842,121.040055 184.724678,123.350829 183.482044,124.875691 C193.399632,126.048343 197.38582,120.395028 200.433702,120.617403 C206.951657,121.110497 206.564917,133.426335 190.457182,133.449816 L192.122007,136.206262 C192.122007,136.206262 189.073665,137.989411 186.271639,138.32965 C187.338858,139.197514 188.382136,140.370626 189.28453,141.261971 L186.717311,143.479282 C193.270718,144.651934 195.146869,137.661142 199.401934,141.027624 C205.908379,146.188766 191.582413,157.061694 177.831492,155.44337 C178.991713,156.921271 182.21593,159.103131 183.610497,160.229282 C172.403315,170.809392 177.913444,180.779466 173.32919,188.087017 C182.96593,187.441989 190.117403,180.357274 191.817219,172.686004 L194.536832,177.319061 C195.509669,174.269337 197.291897,171.10267 198.405617,168.850368 C200.574125,173.366483 204.056169,173.460405 207.4093,173.483886 C206.646869,162.668969 220.222836,151.79558 214.267035,139.455801 C213.071823,136.992634 213.844843,133.96639 216.412983,132.664365 C225.533149,128.042357 221.301105,147.232965 230.410221,147.819061 C228.663444,145.62523 228.018877,141.074586 227.772099,140.675875 C229.694751,141.180479 234.314457,144.13582 236.400552,140.347145 C231.11372,137.508287 229.589779,133.145028 228.733425,128.769797 Z M211.699816,113.075506 C212.415285,116.758748 212.778085,120.8407 212.61418,125.556169 C212.461786,130.68186 211.441529,135.186004 209.812155,139.220994 C210.222376,144.828269 209.730663,154.399171 203.305709,160.721915 C207.655157,155.185543 208.604972,146.212247 208.217772,142.70488 C203.176796,152.405157 188.851289,165.824125 181.910681,174.832873 C188.839319,163.243554 205.837937,149.695672 209.483886,134.071823 C207.139042,136.49954 204.337477,136.758287 198.991713,136.418048 C204.853131,135.702118 208.14733,134.271179 210.198895,130.377072 C210.503683,128.359576 210.703499,126.201197 210.784991,123.902394 C210.984807,117.720534 208.933241,110.354052 204.665746,102.28407 C204.701197,107.351289 200.691529,115.303867 191.746777,116.617864 C199.765654,113.098987 204.501381,105.1814 201.934162,97.5220994 C200.269337,94.8476059 198.394107,92.0791897 196.260129,89.2757827 C195.20488,87.9267956 194.173573,86.6132597 193.153775,85.4051565 C194.232044,89.3107735 189.507827,93.3457643 186.342081,94.0262431 C188.065838,92.3489871 191.735267,86.9060773 183.247238,77.8158379 C185.627072,78.941989 188.253223,80.5253223 190.234346,82.0736648 C174.794659,65.3941068 162.122007,64.924954 156.272099,56.5267035 C164.724217,62.2978821 187.081031,65.4175875 197.116022,62.6841621 C191.582413,66.390884 178.218232,66.0506446 174.947053,65.3586556 C185.838398,75.9507366 209.63674,86.8950276 213.739871,96.6307551 C207.948435,90.2845304 204.185083,89.1118785 199.202578,87.4696133 C203.153315,93.3692449 206.693831,98.5543278 209.144107,104.571363 C215.486188,118.33011 223.950737,118.494936 224.501381,129.837477 C221.617864,121.075046 215.767495,118.846685 211.699816,113.075506 Z" id="Shape" fill="#FFFFFF" fill-rule="nonzero"></path>
                    <path d="M137.45488,93.2859116 C134.910221,96.7813076 130.279926,99.1270718 125.016114,99.1270718 C123.784991,99.1270718 122.600829,98.9866483 121.475599,98.7753223 C121.792357,100.218232 122.530847,101.708103 124.066298,102.986188 C123.445212,107.173573 125.25046,111.091621 129.740792,112.112339 C130.220994,114.247238 131.53453,115.854052 133.761971,116.616022 L130.631215,120.229282 C129.424033,121.61326 127.853131,122.058932 126.587017,121.895028 L112.61326,120.311234 C113.222376,118.762891 111.604512,116.968232 107.173112,117.730663 L112.659761,102.364641 L109.31814,95.2449355 L102.976519,100.663904 L102.507366,116.780387 L99.7757827,115.455341 C96.2587477,113.930018 95.2154696,120.346225 98.5686004,120.369705 L99.9166667,120.381676 C99.822744,121.038214 100.03361,121.765654 100.561234,122.00046 C99.9281768,122.258287 99.7403315,123.44291 100.526243,123.865562 C99.7288214,124.252302 99.6118785,125.472376 100.256446,126.00046 C99.5649171,127.184622 99.4355433,129.753683 101.88628,130.399171 C103.902394,130.926796 105.168508,128.767956 105.57919,127.513352 L127.325506,134.246317 C130.385359,135.126151 132.589319,134.633057 135.145028,132.393186 L140.819521,127.430939 C140.104052,130.680479 141.264273,133.600829 143.73849,134.574586 C143.73849,134.574586 143.351289,137.553867 143.503683,138.785912 L151.111878,138.797422 L163.093002,138.797422 L163.093002,103.021639 C163.093002,99.6906077 164.043278,96.359116 165.21547,93.2859116 L151.111878,93.2859116 L137.45488,93.2859116 Z" id="Path" fill="#FFFFFF" fill-rule="nonzero"></path>
                    <path d="M104.889042,153.483886 L105.311234,154.011971 C105.89733,154.739411 106.249079,154.563076 106.917127,154.176335 L107.901934,153.648711 C108.523481,153.179098 112.56814,154.727901 112.790516,151.361418 C113.236188,153.871087 110.246777,159.161142 112.052026,162.117403 L114.478821,166.093923 L106.553867,166.211326 C105.686464,166.211326 105.229282,166.73895 104.994936,167.208103 L102.919429,171.512891 C102.379834,172.650552 102.415285,173.823665 103.095304,174.609576 L104.502302,176.19291 C104.502302,176.19291 105.651473,175.219613 106.025783,173.941068 L105.404696,173.29558 C104.889042,172.802947 104.889042,172.333794 105.17035,171.723757 L106.447974,169.073204 C106.940608,168.029006 107.444751,167.806169 108.570442,168.075967 L114.982965,169.459945 C115.451657,169.577808 116.214088,169.800184 116.67081,169.014273 C117.456262,167.618324 118.839779,167.524862 120.246777,167.747698 C123.763352,168.275322 131.888122,169.120166 134.78361,165.730203 C138.183241,170.246317 144.830571,170.246317 144.396869,172.615101 L142.989871,180.380295 L145.099908,180.380295 L146.389503,172.439687 C146.529926,171.512891 147.104972,170.246317 146.108195,169.530847 C145.697974,169.214088 145.510589,169.049724 144.583794,167.45442 C143.376611,165.343002 143.435543,162.175875 142.274401,159.44291 C143.376611,158.140884 144.572284,157.695212 145.615562,157.941529 C147.960405,158.516114 148.593462,162.563076 151.922652,165.858656 C151.547882,164.392726 151.383978,162.785912 150.598066,161.389963 C150.598066,161.389963 152.907459,163.184622 153.505525,165.28407 C153.880755,166.598066 154.267495,167.559853 155.451657,168.16989 C156.237109,168.451197 157.174954,168.075967 158.11326,166.949816 C158.11326,166.949816 155.92035,163.83011 154.314457,161.789134 C152.110497,158.985267 149.167587,156.17035 145.15884,156.498619 C143.892265,156.604512 142.673112,157.179098 141.512891,157.871087 C136.952118,155.313996 133.412063,158.023481 132.005064,158.023481 L123.470534,157.518877 C121.794199,157.413904 120.469153,155.46639 120.469153,155.46639 C120.258287,148.241252 114.455341,145.366943 112.450737,145.366943 C112.450737,145.366943 112.638582,144.064917 112.110497,143.607735 L110.328729,145.848066 L105.381215,144.041436 L109.261971,147.220534 L105.052947,152.111878 C104.619705,152.593002 104.678177,153.226059 104.889042,153.483886 Z" id="Path" fill="#FFFFFF" fill-rule="nonzero"></path>
                    <path d="M99.2978821,163.629374 C98.1022099,164.555709 98.1606814,165.846225 98.876151,167.289134 L99.5911602,168.626151 L101.45488,167.206722 L101.033149,166.291897 C100.728361,165.646869 100.740331,164.989871 101.267495,164.57919 L103.940608,162.561694 C104.691068,162.010589 104.925414,161.952118 105.722836,162.069061 L111.360958,163.254144 C111.360958,163.254144 110.505525,162.010589 110.224217,160.743554 L104.913444,160.039595 C104.162983,159.946133 103.706262,160.262891 103.049724,160.767035 L99.2978821,163.629374 Z" id="Path" fill="#FFFFFF" fill-rule="nonzero"></path>
                    <path d="M135.356814,180.379834 L137.490792,180.379834 L140.913444,171.946133 C141.030847,171.652855 141.194751,171.523941 141.324125,171.277624 C139.788214,170.667587 138.885359,170.245396 137.607735,169.506446 C138.463628,170.656077 139.131676,171.148711 138.779926,172.21593 L135.356814,180.379834 Z" id="Path" fill="#FFFFFF" fill-rule="nonzero"></path>
                    <path d="M137.173112,66.3084715 L141.123849,43.5883057 L126.153315,48.6790976 L126.153315,72.1031308 L137.173112,66.3084715 Z M128.685083,50.9779006 L138.614641,47.3186004 C138.614641,47.3186004 136.680479,48.8899632 134.371087,50.4732965 C132.319521,51.8927256 128.685083,53.4060773 128.685083,53.4060773 L128.685083,50.9779006 Z M128.685083,56.4792818 L137.770718,53.2297422 C137.770718,53.2297422 136.680479,54.3798343 134.382597,55.9631676 C132.331031,57.3706262 128.697053,58.8835175 128.697053,58.8835175 L128.697053,56.4792818 L128.685083,56.4792818 Z M128.685083,62.320442 L136.680479,59.2472376 C136.680479,59.2472376 136.680479,60.2209945 134.371087,61.7928177 C132.319521,63.2122468 128.685083,64.7251381 128.685083,64.7251381 L128.685083,62.320442 Z" id="Shape" fill="#FFFFFF" fill-rule="nonzero"></path>
                    <path d="M110.538674,86.4010129 L110.866943,86.9290976 L113.950276,86.9290976 L113.985267,87.4686924 C114.020718,87.985267 114.138122,88.5128913 114.313536,89.0520258 C114.794659,90.5184162 115.744015,92.0552486 117.267956,93.2983425 C119.038214,94.7297422 121.593923,95.7619705 124.993554,95.7619705 C132.367864,95.7619705 135.697053,90.9880295 136.013812,87.4686924 L136.037293,86.9290976 L139.131676,86.9290976 L139.459945,86.4010129 C142.367864,81.8503683 145.91989,76.7946593 150.046041,76.0676796 L138.791897,69.5336096 L124.993554,77.0409761 L111.183241,69.5336096 L99.9406077,76.0676796 C104.06768,76.7831492 107.619705,81.8503683 110.538674,86.4010129 Z" id="Path" fill="#FFFFFF" fill-rule="nonzero"></path>
                    <path d="M123.834254,72.1031308 L123.834254,48.6790976 L108.887201,43.5883057 L112.813996,66.3084715 L123.834254,72.1031308 Z M121.313536,64.7486188 C121.313536,64.7486188 117.679098,63.2242173 115.627993,61.8162983 C113.3186,60.2444751 113.3186,59.2592081 113.3186,59.2592081 L121.325046,62.3324125 L121.325046,64.7486188 L121.313536,64.7486188 Z M121.313536,50.9779006 L121.313536,53.4060773 C121.313536,53.4060773 117.679098,51.8927256 115.627993,50.4732965 C113.30663,48.8899632 111.360497,47.3186004 111.360497,47.3186004 L121.313536,50.9779006 Z M121.313536,56.4792818 L121.313536,58.895488 C121.313536,58.895488 117.679098,57.3825967 115.627993,55.9746777 C113.30663,54.3913444 112.228361,53.2417127 112.228361,53.2417127 L121.313536,56.4792818 Z" id="Shape" fill="#FFFFFF" fill-rule="nonzero"></path>
                    <path d="M125.003683,33.5706722 C116.457182,33.5706722 110.044659,36.3739411 108.649171,39.6586096 L125.003683,46.121547 L141.334254,39.6586096 C139.950737,36.3739411 133.549724,33.5706722 125.003683,33.5706722 Z" id="Path" fill="#FFFFFF" fill-rule="nonzero"></path>
                    <path d="M125.005525,24.1859576 C131.301105,24.1859576 137.608195,26.0981584 141.85175,28.5731584 C142.543738,26.2857735 143.282228,24.6553867 144.290516,22.7905617 L140.422192,23.3887201 L137.291436,16.7026243 L131.441989,19.8111878 L125.005525,13.4418969 L118.557551,19.8111878 L112.719613,16.7026243 L109.566298,23.3887201 L105.697053,22.7905617 C106.705341,24.6553867 107.43232,26.2857735 108.14779,28.5731584 C112.403315,26.0981584 118.686924,24.1859576 125.005525,24.1859576 Z" id="Path" fill="#FFFFFF" fill-rule="nonzero"></path>
                    <path d="M231.686464,75.679558 C233.796501,75.410221 235.496777,74.7062615 237.571823,73.1574586 C233.104972,71.9732965 223.74954,68.5833333 215.766114,70.1081952 C213.128453,70.4599448 211.663444,71.5271639 212.600829,72.1372007 C216.891805,74.9875691 222.190608,81.5911602 226.047422,89.2983425 C229.435543,85.0870166 228.017035,79.5621547 227.301565,77.9788214 C234.054328,82.0488029 235.825046,84.0313076 238.95488,83.2569061 C237.278085,80.6883057 234.921731,78.3775322 231.686464,75.679558 Z" id="Path" fill="#FFFFFF" fill-rule="nonzero"></path>
                    <path d="M23.9617864,89.2872928 C27.8186004,81.5810313 33.1174033,74.9774401 37.4198895,72.1266114 C38.3812155,71.517035 36.8922652,70.4493554 34.2780847,70.0976059 C26.2826888,68.5847145 16.9042357,71.9627072 12.4378453,73.1473297 C14.5359116,74.6961326 16.2007366,75.3996317 18.3347145,75.6694291 C15.087477,78.3789134 12.730663,80.6781768 11.0543278,83.2467772 C14.2076427,84.0207182 15.9663904,82.038674 22.7071823,77.968232 C22.0156538,79.5635359 20.585175,85.0764273 23.9617864,89.2872928 Z" id="Path" fill="#FFFFFF" fill-rule="nonzero"></path>
                    <path d="M70.7720994,160.814917 C73.8789134,158.351289 76.4576427,157.119245 76.3291897,151.149171 C71.6629834,153.541897 58.4277164,153.412983 52.8941068,145.788674 C51.3347145,143.618785 52.9995396,142.528085 54.5115101,144.240331 C58.2983425,148.53361 65.3089319,146.586556 67.8646409,145.354512 C67.4544199,143.877072 66.3172192,141.953039 65.3678637,141.132136 C66.3291897,140.193831 69.0372928,138.785912 69.5879374,136.369705 C68.1459484,135.583794 62.5303867,135.020718 62.5303867,135.020718 C63.4337017,134.152855 64.5584715,132.944751 63.8789134,129.719153 C58.1459484,131.478821 51.053407,129.085635 49.4475138,126.962707 C47.8646409,124.874309 49.482965,122.915746 50.8190608,124.299724 C53.679558,127.302486 67.7707182,130.739411 73.0115101,125.519797 C71.0653775,124.980203 68.9198895,123.244015 68.5326888,122.164825 C73.3867403,121.672652 77.2550645,118.810313 77.5718232,115.244475 C74.8867403,115.244475 69.8222836,115.04512 68.0870166,113.754604 C70.4083794,112.898711 71.8858195,112.053867 72.6243094,109.449816 C63.75,108.910681 63.0465009,102.31814 62.9995396,101.22744 C68.7790055,104.558471 78.9548803,103.080571 76.3172192,94.8697053 C71.5105893,94.6118785 66.6689687,86.835175 79.8812155,79.6915285 C91.8977901,73.18186 105.555249,66.1671271 104.347606,54.6137201 C103.562155,47.2237569 91.4051565,42.1798343 89.8577348,38.4381676 C84.7813076,40.8542818 83.7615101,43.658011 86.0474217,48.361418 C86.0474217,48.361418 74.7343462,49.4875691 73.8434622,42.5200737 C73.4567219,39.4 75.5432781,36.4790516 77.7826888,34.2390424 C76.5165746,34.2390424 67.9935543,31.9516114 65.4258748,38.8956262 C60.6546961,35.6348987 56.5635359,35.7521639 53.3512891,39.2004604 C58.4857274,42.2501842 61.6629834,52.7131676 70.1505525,55.7978821 C64.1127993,59.070442 54.3476059,57.6984346 48.6500921,47.6339779 C43.2573665,55.7628913 40.1510129,63.8093923 51.7219153,72.4074586 C30.6781768,81.9903315 30.8310313,100.312615 12.5188766,109.039134 C14.3710866,114.024401 18.2868324,114.024401 23.2813076,113.25046 C15.3674033,123.537293 22.1086556,134.305249 9.57642726,138.703959 C10.7486188,142.903315 13.1049724,146.257827 17.7242173,145.026243 C16.4111418,147.078729 15.5437385,147.031768 13.5036832,149.28407 C20.3499079,153.600829 28.4746777,150.480663 30.3149171,136.627532 C30.643186,134.152855 34.0428177,135.701197 32.8706262,138.129374 C25.0626151,154.281308 44.8052486,166.433241 37.81814,178.280387 C43.9723757,178.021639 48.6735727,177.540976 51.2292818,175.465009 C52.4838858,177.951657 53.2458564,180.414825 52.9645488,182.843002 C56.3641805,182.151013 57.606814,180.145028 57.8411602,177.822744 C60.0690608,184.332873 68.0405157,191.288214 80.7955801,191.288214 C74.0313076,181.623389 80.3268877,171.828729 70.7720994,160.814917 Z M58.1809392,172.720074 L55.4617864,177.353131 C54.4880295,174.303407 52.718232,171.13674 51.5810313,168.884899 C49.3890424,173.400552 45.9304788,173.494475 42.6008287,173.517956 C43.3393186,162.703039 29.752302,151.82965 35.7311234,139.489871 C36.9267956,137.026703 36.1413444,134.00046 33.5736648,132.698435 C24.4650092,128.076888 28.6850829,147.266575 19.5883978,147.853131 C21.3232044,145.6593 21.9792818,141.108656 22.2375691,140.709484 C20.3029466,141.214088 15.6721915,144.16989 13.5860958,140.393186 C18.9083794,137.495856 20.4323204,133.132597 21.264733,128.757366 C22.3195212,123.220534 22.8121547,120.651934 23.8789134,118.376151 C25.0041436,115.948435 26.7978821,113.837017 30.643186,108.85175 C29.7288214,108.980663 19.4944751,111.151013 17.1850829,110.071823 C34.8991713,99.1864641 30.9129834,85.356814 57.9116022,73.0290055 C50.8305709,67.7624309 43.5971455,63.5630755 48.7794659,53.5110497 C56.1763352,62.4019337 70.232965,59.3287293 77.8296501,55.1998158 C70.3268877,53.6984346 60.6546961,47.0828729 58.3687845,39.7168048 C61.1938306,39.2827808 64.8632597,42.3559392 66.9622468,43.7867403 C67.9820442,41.0653315 68.3807551,37.9103591 71.674954,37.2298803 C67.2785451,46.6252302 75.9539595,51.5285451 84.230663,51.5639963 C85.5197974,51.5639963 90.8660221,51.0239411 90.8660221,51.0239411 C90.0096685,49.264733 86.5515654,44.4552486 89.0603131,42.5200737 C91.0883978,44.4203039 93.5036832,45.9334254 95.6956722,47.6224678 C111.791897,60.0791897 88.0520258,71.621547 78.3453039,76.8651013 C63.1164825,85.0989871 67.196593,94.9051565 73.5506446,97.4037753 C73.5271639,98.5059853 72.8471455,98.9986188 71.7918969,99.3508287 C67.337477,100.828729 63.1634438,97.6496317 59.611418,95.6086556 C59.8222836,101.755525 59.4005525,107.667127 66.1998158,111.04512 L61.5220994,112.745856 C65.5432781,115.807551 66.7744015,117.425875 71.6160221,118.059392 C69.3535912,119.162063 66.5515654,119.138582 64.1482505,119.361878 C64.7582873,121.062155 65.2504604,123.373389 66.5165746,124.89779 C56.6104972,126.071363 52.6362799,120.417127 49.5644567,120.640424 C43.0230203,121.132597 43.4332413,133.449355 59.5294659,133.472836 L57.8646409,136.228821 C57.8646409,136.228821 60.912523,138.011971 63.7150092,138.35175 C62.6477901,139.220074 61.6160221,140.393186 60.713628,141.28407 L63.2808471,143.501381 C56.7044199,144.674033 54.8517495,137.683241 50.5842541,141.049724 C44.0782689,146.210866 58.4157459,157.084715 72.1551565,155.46547 C71.0069061,156.943831 67.7707182,159.125691 66.3876611,160.251381 C77.5833333,170.831952 72.0616943,180.802026 76.6689687,188.110037 C67.0092081,187.476059 59.8577348,180.379374 58.1809392,172.720074 Z" id="Shape" fill="#000000"></path>
                    <path d="M40.5156538,134.083333 C42.8485267,136.51105 45.6620626,136.769337 50.9958564,136.429098 C45.1229282,135.713628 41.8287293,134.282228 39.7771639,130.388582 C39.4838858,128.371087 39.2849908,126.212247 39.2025783,123.913444 C39.0151934,117.731584 41.0547882,110.365562 45.3222836,102.29558 C45.2988029,107.350829 49.2965009,115.303407 58.2412523,116.628913 C50.1993554,113.110497 45.4746777,105.192449 48.053407,97.5331492 C49.7302026,94.8586556 51.6178637,92.0902394 53.7279006,89.2872928 C54.7826888,87.9383057 55.8144567,86.6243094 56.822744,85.4162063 C55.7440147,89.3222836 60.4686924,93.3572744 63.6339779,94.0372928 C61.9221915,92.3600368 58.2412523,86.929558 66.7407919,77.8393186 C64.3724678,78.9650092 61.7463168,80.5483425 59.7536832,82.0966851 C75.18186,65.4171271 87.8775322,64.9479742 93.7044199,56.5497238 C85.2633517,62.3209024 62.9074586,65.4406077 52.8604972,62.7071823 C58.4051565,66.4139042 71.7582873,66.0736648 75.0290055,65.3816759 C64.1500921,75.9737569 40.3747698,86.9180479 36.2486188,96.6537753 C42.0395948,90.2960405 45.7909761,89.1348987 50.8084715,87.5041436 C46.8581952,93.4042357 43.3061694,98.5888582 40.8554328,104.606354 C34.5248619,118.353131 26.0607735,118.529466 25.5096685,129.860497 C28.3941068,121.074586 34.2555249,118.846225 38.3116943,113.075046 C37.5966851,116.758287 37.2564457,120.840239 37.3853591,125.555709 C37.5262431,130.6814 38.558011,135.185543 40.1873849,139.220534 C39.7771639,144.827808 40.269337,154.398711 46.6938306,160.721455 C42.3328729,155.196593 41.3945672,146.211786 41.781768,142.70442 C46.8112339,152.404696 61.1487109,165.823665 68.0773481,174.832413 C61.1487109,163.255064 44.1616022,149.718692 40.5156538,134.083333 Z" id="Path" fill="#000000"></path>
                    <path d="M199.213628,87.5032228 C204.196133,89.145488 207.959484,90.3070902 213.75046,96.6643646 C209.64779,86.9286372 185.837477,75.9848066 174.958103,65.393186 C178.228821,66.0732044 191.593462,66.4254144 197.127072,62.7186924 C187.092081,65.4516575 164.735727,62.3314917 156.282689,56.5603131 C162.121547,64.9590239 174.806169,65.4281768 190.245396,82.1077348 C188.264273,80.5593923 185.638122,78.9760589 183.258287,77.8499079 C191.746317,86.9406077 188.076888,92.3830571 186.353591,94.0603131 C189.518416,93.3802947 194.243094,89.3453039 193.164365,85.4387661 C194.184622,86.6473297 195.21593,87.9608656 196.271179,89.3098527 C198.392726,92.1252302 200.268877,94.8812155 201.945212,97.555709 C204.524401,105.22744 199.788214,113.144567 191.769337,116.651934 C200.714549,115.338398 204.723757,107.373389 204.677256,102.31814 C208.955801,110.388122 210.995856,117.754604 210.808011,123.936004 C210.726059,126.234807 210.526703,128.381676 210.221915,130.411142 C208.15884,134.304788 204.864641,135.736188 199.002762,136.451657 C204.348987,136.779926 207.150552,136.53407 209.494936,134.105893 C205.848987,149.741713 188.861878,163.277624 181.921731,174.866483 C188.861878,165.858195 203.176335,152.439687 208.229282,142.73849 C208.616022,146.245856 207.678177,155.230663 203.317219,160.755985 C209.741252,154.433702 210.233886,144.861878 209.823204,139.255064 C211.441068,135.220074 212.460866,130.71593 212.62523,125.589779 C212.777624,120.874309 212.413904,116.780847 211.710866,113.109576 C215.778545,118.880295 221.628453,121.109576 224.524401,129.895028 C223.973297,118.552026 215.509208,118.376151 209.166667,104.628913 C206.70488,98.5759669 203.164365,93.3918048 199.213628,87.5032228 Z" id="Path" fill="#000000"></path>
                    <path d="M226.740331,113.226059 C231.722836,114.012431 235.639042,114.012431 237.502762,109.027164 C219.190608,100.300184 219.343462,81.9898711 198.299724,72.395488 C209.870626,63.8089319 206.752762,55.7504604 201.371547,47.6220074 C195.685543,57.6860037 185.885359,59.0584715 179.871087,55.7859116 C188.335175,52.7007366 191.535912,42.2380755 196.67035,39.1883517 C193.458103,35.7395488 189.354972,35.6223297 184.583794,38.8830571 C182.004604,31.9390424 173.493554,34.2264273 172.21547,34.2264273 C174.44291,36.4549724 176.553407,39.3759208 176.154696,42.507965 C175.275783,49.4755985 163.962707,48.3489871 163.962707,48.3489871 C166.248619,43.645442 165.228361,40.8421731 160.152394,38.4255985 C158.604972,42.1677256 146.459945,47.211326 145.662523,54.6008287 C144.44337,66.1546961 158.123849,73.1689687 170.128913,79.679558 C183.3407,86.822744 178.49954,94.611418 173.70442,94.8577348 C171.043278,103.0686 181.219153,104.546501 187.010129,101.215009 C186.986648,102.306169 186.248619,108.89779 177.373849,109.437845 C178.124309,112.041897 179.589779,112.88582 181.911142,113.742634 C180.175875,115.044659 175.111418,115.232044 172.438306,115.232044 C172.754604,118.797882 176.635359,121.671731 181.48895,122.152855 C181.10175,123.232044 178.945212,124.968232 177.010129,125.507366 C182.250921,130.72698 196.342081,127.290516 199.203039,124.287753 C200.515654,122.903775 202.122007,124.862339 200.550645,126.950276 C198.932781,129.084715 191.85221,131.477901 186.107735,129.706262 C185.451197,132.92081 186.553407,134.140424 187.455801,135.008748 C187.455801,135.008748 181.8407,135.571363 180.38674,136.357735 C180.937845,138.773941 183.657459,140.169429 184.607274,141.119705 C183.645488,141.940608 182.508748,143.86418 182.098527,145.342541 C184.677256,146.585635 191.687845,148.521179 195.451197,144.227901 C196.975138,142.527164 198.639963,143.606354 197.080571,145.776703 C191.547422,153.400552 178.312155,153.517956 173.634438,151.13674 C173.505064,157.107274 176.084254,158.339319 179.191068,160.802026 C169.62477,171.816759 175.943831,181.610958 169.179098,191.252762 C181.922652,191.252762 189.894567,184.296961 192.122007,177.786832 C192.379834,180.097606 193.598527,182.115101 196.986648,182.80709 C196.729282,180.378913 197.479282,177.915746 198.721915,175.429098 C201.301105,177.505525 206.002302,177.986188 212.156538,178.244015 C205.1814,166.39733 224.923573,154.245396 217.092541,138.093462 C215.93186,135.665285 219.331492,134.116943 219.659761,136.592081 C221.48849,150.444751 229.62477,153.564917 236.482505,149.248619 C234.419429,146.996317 233.563536,147.043278 232.25046,144.990331 C236.869705,146.221915 239.214549,142.867403 240.39825,138.668048 C227.924954,134.281308 234.665746,123.513352 226.740331,113.226059 Z M227.79558,140.720994 C228.042357,141.119705 228.686924,145.67081 230.433241,147.864641 C221.324586,147.277624 225.544659,128.087937 216.436004,132.709484 C213.868324,134 213.106814,137.026243 214.290516,139.500921 C220.245856,151.8407 206.67035,162.714549 207.432781,173.529006 C204.07965,173.505985 200.597606,173.411602 198.429098,168.895488 C197.314917,171.14825 195.521639,174.314917 194.548803,177.364641 L191.828729,172.731584 C190.140424,180.402394 182.98895,187.487569 173.35267,188.132597 C177.936924,180.836556 172.426335,170.866022 183.633978,160.274401 C182.22744,159.14825 179.003223,156.966851 177.843002,155.48849 C191.593923,157.107274 205.91989,146.234346 199.413904,141.072744 C195.158379,137.706262 193.282228,144.697514 186.728821,143.523941 L189.296501,141.307551 C188.393646,140.416206 187.350368,139.254604 186.283149,138.37523 C189.085635,138.034991 192.133517,136.251842 192.133517,136.251842 L190.468692,133.495396 C206.564917,133.471915 206.951657,121.155617 200.445212,120.662983 C197.385359,120.440147 193.399632,126.105433 183.493554,124.921271 C184.747698,123.395948 185.263812,121.085175 185.873389,119.384438 C183.481584,119.161602 180.656077,119.185083 178.405617,118.082413 C183.247238,117.460866 184.46639,115.830571 188.487569,112.780847 L183.821823,111.06814 C190.609116,107.678177 190.175875,101.778085 190.38674,95.6321363 C186.846225,97.6731123 182.649171,100.839779 178.229742,99.373849 C177.174494,99.021639 176.482965,98.5290055 176.459484,97.4263352 C182.825046,94.9162063 186.881676,85.1220074 171.664825,76.8876611 C161.969613,71.6445672 138.217772,60.1022099 154.302486,47.6569982 C156.506446,45.968232 158.89779,44.44314 160.914365,42.5548343 C163.434622,44.4900552 159.98849,49.2992634 159.132136,51.0589319 C159.132136,51.0589319 164.478361,51.5980663 165.744015,51.5980663 C174.032689,51.5630755 182.719613,46.660221 178.323204,37.2526703 C181.617864,37.9331492 182.004604,41.1120626 183.012431,43.821547 C185.122928,42.3902394 188.780847,39.3290516 191.629374,39.7630755 C189.319982,47.1178637 179.671271,53.7449355 172.156998,55.2458564 C179.741713,59.3752302 193.809853,62.4484346 201.207182,53.5570902 C206.389042,63.6095764 199.167587,67.8089319 192.075046,73.0755064 C219.085635,85.3918048 215.087937,99.232965 232.813076,110.118324 C230.527164,111.197053 220.257827,109.027164 219.343462,108.89779 C223.211786,113.883057 225.017495,115.994475 226.119245,118.422652 C227.197974,120.697974 227.667127,123.255525 228.733886,128.803407 C229.577808,133.178637 231.11326,137.541897 236.412063,140.439687 C234.337477,144.1814 229.718692,141.225138 227.79558,140.720994 Z" id="Shape" fill="#000000"></path>
                    <path d="M99.1777164,170.996777 L103.034991,167.724217 L102.448435,166.551105 C102.026703,165.706722 102.24954,165.659761 102.695212,165.331492 L104.735267,163.81814 C105.203499,163.430939 105.696133,163.477901 106.270718,163.618785 L112.377993,165.049724 L105.930479,165.049724 C104.441529,165.143186 104.008287,165.718232 103.468692,166.820902 L103.023481,167.724217 L101.370626,171.125691 C100.807551,172.298803 100.514273,173.858656 101.991713,175.617864 L103.163904,177.013812 L100.79558,181.811694 L102.788674,181.811694 L104.430018,178.480203 C104.558932,178.362799 106.985727,176.145948 107.501381,173.858656 C106.797882,173.28407 106.305709,172.884899 106.69291,172.087477 L107.430939,170.492173 C107.677716,169.964549 107.759208,169.753683 108.462707,169.882136 L114.86372,171.266575 C115.661142,171.48895 116.833333,171.84116 117.688766,170.550645 C118.5686,169.213628 118.685543,169.354512 120.725138,169.553867 L123.995856,169.905617 C128.462707,170.328269 132.929098,169.213628 134.664365,167.82965 C135.273941,169.213628 136.481584,170.281308 137.044199,171.360497 C137.255064,171.759208 136.903315,172.322284 136.633978,173.025783 L132.964549,181.799724 L138.626611,181.799724 L141.827348,173.800184 C142.120626,173.037753 142.553867,172.427716 142.882136,172.122928 L141.041897,181.811694 L146.540055,181.811694 L147.993554,172.228361 C148.310313,170.093462 148.122928,169.413444 147.103131,168.533149 C144.816759,166.598066 144.86326,162.539595 144.12523,160.075967 C144.511971,159.853591 144.969153,159.735727 145.508748,159.80663 C146.70442,159.912063 147.606814,162.973757 149.013812,164.944291 C151.826888,168.896869 155.660681,173.260589 160.05709,167.11372 C159.634899,166.410681 159.177716,165.776703 158.638582,165.166667 L157.407919,163.724217 C156.692449,162.926796 153.292818,159.032228 151.873849,157.63674 C148.650092,154.387201 143.703039,154.880295 141.733425,156.463628 C137.266575,154.117403 132.554328,156.581031 131.440608,156.487109 L123.75,156.017495 C123.39825,155.994015 122.871087,155.877072 122.495856,155.279006 L123.925875,154.809853 C122.589779,149.238029 119.225138,144.581031 113.35175,143.772099 C113.35175,143.772099 113.01151,142.012431 112.108656,141.672192 L110.350368,143.736648 C109.857735,143.80709 109.3186,143.959484 108.872928,144.14733 L101.370626,141.355433 L106.997698,147.044659 C106.997698,147.044659 104.078269,151.185083 103.245856,152.029466 C102.695212,152.803867 102.742173,153.401934 103.36326,154.140884 L104.453499,155.572284 C105.016575,156.311234 105.637661,156.287753 106.540055,155.83011 L107.771179,155.185083 C108.310773,154.73895 110.115562,155.619245 110.889503,154.915285 C110.396869,156.53407 110.151013,158.093923 110.03407,159.325967 L104.981123,158.71547 C103.878913,158.563076 103.37523,158.71547 102.706722,159.243554 L98.3927256,162.563076 C96.9857274,163.642265 96.5520258,165.506906 97.4198895,167.325506 L99.1777164,170.996777 Z M140.912523,171.946593 L137.489871,180.392265 L135.355893,180.392265 L138.779466,172.21639 C139.131215,171.160681 138.462707,170.668048 137.606814,169.518416 C138.873389,170.234346 139.787753,170.703499 141.323204,171.290055 C141.194291,171.524401 141.029926,171.653315 140.912523,171.946593 Z M107.900092,153.659761 L106.927256,154.176335 C106.247238,154.563536 105.906998,154.73895 105.320902,154.011971 L104.899171,153.472376 C104.688306,153.214549 104.617864,152.593002 105.051565,152.099908 L109.248158,147.209024 L105.379834,144.029926 L110.303407,145.848066 L112.108656,143.595764 C112.63628,144.041897 112.448435,145.343462 112.448435,145.343462 C114.441529,145.343462 120.244936,148.229282 120.467311,155.45488 C120.467311,155.45488 121.780387,157.389963 123.456722,157.495856 L132.003223,158.01151 C133.421731,158.01151 136.962247,155.314457 141.51105,157.859576 C142.659761,157.167127 143.890424,156.616022 145.156998,156.475138 C149.165746,156.18186 152.120626,158.973757 154.312615,161.788674 C155.918508,163.82965 158.122928,166.949816 158.122928,166.949816 C157.173112,168.075967 156.246777,168.451197 155.461786,168.169429 C154.277624,167.559853 153.890424,166.609576 153.515193,165.28453 C152.917587,163.184622 150.608195,161.389963 150.608195,161.389963 C151.393646,162.797422 151.557551,164.393186 151.932781,165.859116 C148.591621,162.551105 147.958564,158.516114 145.625691,157.953499 C144.593923,157.694751 143.38674,158.140884 142.27256,159.430939 C143.445212,162.163904 143.38674,165.331492 144.593923,167.453959 C145.508748,169.037753 145.707643,169.178177 146.118324,169.530387 C147.103131,170.234346 146.551565,171.512431 146.399632,172.439687 L145.133517,180.380295 L142.99954,180.380295 L144.406538,172.615101 C144.840239,170.245856 138.19337,170.245856 134.793278,165.730203 C131.89779,169.119705 123.773481,168.275322 120.256446,167.747698 C118.837937,167.536372 117.45442,167.630295 116.680479,169.026243 C116.223757,169.811694 115.461786,169.577348 114.993094,169.460405 L108.58011,168.075967 C107.45442,167.81768 106.962247,168.040976 106.469613,169.073204 L105.191989,171.724217 C104.910681,172.345764 104.922652,172.803407 105.437845,173.307551 L106.047882,173.952578 C105.684622,175.219153 104.523941,176.19291 104.523941,176.19291 L103.128453,174.621087 C102.448435,173.823204 102.413904,172.674033 102.953039,171.547882 L105.028085,167.207643 C105.273941,166.72744 105.719613,166.210866 106.587017,166.210866 L114.511971,166.093462 L112.085175,162.140424 C110.279926,159.173112 113.281308,153.883057 112.823665,151.384438 C112.577808,154.72744 108.533149,153.202578 107.900092,153.659761 Z M99.2951197,163.630295 L103.046961,160.767956 C103.715009,160.263812 104.160221,159.935543 104.922652,160.029006 L110.221455,160.732965 C110.514273,162 111.358656,163.243094 111.358656,163.243094 L105.719613,162.058471 C104.922652,161.965009 104.688306,162 103.937845,162.539595 L101.264733,164.55709 C100.737569,164.967772 100.714088,165.624309 101.018877,166.269797 L101.452118,167.196133 L99.5883978,168.603591 L98.8729282,167.266575 C98.1459484,165.847145 98.0999079,164.54512 99.2951197,163.630295 Z" id="Shape" fill="#000000"></path>
                    <path d="M115.639042,61.8047882 C117.690608,63.2242173 121.325046,64.7371087 121.325046,64.7371087 L121.325046,62.320442 L113.31768,59.2592081 C113.31768,59.2592081 113.31768,60.2449355 115.639042,61.8047882 Z" id="Path" fill="#000000"></path>
                    <path d="M121.311694,58.8945672 L121.311694,56.4788214 L112.226519,53.2292818 C112.226519,53.2292818 113.305249,54.3789134 115.626611,55.9622468 C117.677716,57.3701657 121.311694,58.8945672 121.311694,58.8945672 Z" id="Path" fill="#000000"></path>
                    <path d="M121.313996,53.4056169 L121.313996,50.9779006 L111.360497,47.31814 C111.360497,47.31814 113.30663,48.8899632 115.627993,50.4732965 C117.679558,51.8927256 121.313996,53.4056169 121.313996,53.4056169 Z" id="Path" fill="#000000"></path>
                    <path d="M149.271639,86.4010129 L159.447514,86.4010129 C159.025322,84.9226519 157.442449,83.4332413 154.476519,83.4332413 C151.663444,83.4332413 149.975138,85.0520258 149.271639,86.4010129 Z" id="Path" fill="#000000"></path>
                    <path d="M138.630295,47.31814 L128.700737,50.9779006 L128.700737,53.4056169 C128.700737,53.4056169 132.334715,51.8927256 134.38674,50.4732965 C136.696133,48.8899632 138.630295,47.31814 138.630295,47.31814 Z" id="Path" fill="#000000"></path>
                    <path d="M136.696133,59.2592081 L128.700737,62.3324125 L128.700737,64.7486188 C128.700737,64.7486188 132.334715,63.2242173 134.38674,61.8162983 C136.696133,60.2449355 136.696133,59.2592081 136.696133,59.2592081 Z" id="Path" fill="#000000"></path>
                    <path d="M137.770258,53.2292818 L128.685083,56.4788214 L128.685083,58.8945672 C128.685083,58.8945672 132.330571,57.3816759 134.370626,55.9742173 C136.691989,54.3789134 137.770258,53.2292818 137.770258,53.2292818 Z" id="Path" fill="#000000"></path>
                    <path d="M95.5101289,83.4332413 C92.5441989,83.4332413 90.9617864,84.9226519 90.5395948,86.4010129 L100.72744,86.4010129 C100.00046,85.0520258 98.3356354,83.4332413 95.5101289,83.4332413 Z" id="Path" fill="#000000"></path>
                    <path d="M145.216851,40.7957182 C145.216851,35.0719613 135.603591,29.9459024 124.994015,29.9459024 C114.384438,29.9459024 104.771639,35.0719613 104.771639,40.7957182 L104.994015,42.2035451 L109.214088,66.519337 L89.1675875,78.213628 C87.03407,79.4691529 84.3609576,82.9171271 84.0211786,86.3895028 L87.6786372,86.3895028 C88.2882136,82.9171271 91.0197974,79.0699816 96.143186,79.3047882 C100.773941,79.5506446 103.516575,82.3660221 106.236648,86.3895028 L106.940147,87.4452118 L107.948435,89.0285451 L78.4640884,89.0285451 C80.6330571,93.3802947 82.6846225,98.0018416 82.6846225,103.010589 L82.6846225,164.345304 C82.6846225,180.122007 94.7951197,187.640884 107.912983,187.640884 C118.042357,187.640884 119.413444,187.183241 125.005985,192.778085 C130.574125,187.183241 131.946133,187.640884 142.098066,187.640884 C155.20488,187.640884 167.326888,180.122007 167.326888,164.345304 L167.326888,103.02256 C167.326888,98.0138122 169.378453,93.3918048 171.546961,89.0400552 L142.039595,89.0400552 L143.059392,87.4567219 L143.762891,86.4010129 C146.470994,82.3779926 149.226059,79.5626151 153.856814,79.3162983 C158.956262,79.0819521 161.711326,82.9290976 162.308932,86.4010129 L165.95488,86.4010129 C165.627072,82.9290976 162.941989,79.4691529 160.820442,78.2255985 L140.773481,66.5308471 L145.005525,42.2150552 L145.216851,40.7957182 Z M108.874309,43.587477 L123.833333,48.6781768 L123.833333,72.1022099 L112.813076,66.3084715 L108.874309,43.587477 Z M112.555709,93.2868324 C114.524862,95.9843462 117.714088,97.978361 121.48849,98.752302 C121.805249,100.171731 122.57919,101.731584 124.07919,102.987109 C123.458103,107.174494 125.251842,111.080571 129.753683,112.112799 C130.222376,114.247238 131.547422,115.854512 133.762891,116.616943 L130.633057,120.229742 C129.436924,121.61372 127.877993,122.059392 126.588398,121.895488 L112.61418,120.311694 C113.223757,118.763352 111.605893,116.968692 107.186004,117.731123 L112.684622,102.365562 L109.331492,95.2453959 L102.97744,100.664825 L102.508287,116.781308 L99.8126151,115.455801 C96.2601289,113.930939 95.228361,120.346685 98.604512,120.370166 L99.9410681,120.382136 C99.859116,121.039134 100.058471,121.766114 100.574125,121.98895 C99.9410681,122.259208 99.7536832,123.455341 100.550645,123.877993 C99.7421731,124.253223 99.6362799,125.472836 100.281308,126.00046 C99.5778085,127.185543 99.4723757,129.754144 101.922192,130.399171 C103.927256,130.927256 105.1814,128.768877 105.591621,127.513812 L127.326888,134.246777 C130.409761,135.126151 132.5907,134.633978 135.146409,132.393646 L140.820442,127.43186 C140.105433,130.680939 141.277624,133.60175 143.751381,134.575046 C143.751381,134.575046 143.399632,137.495856 143.505064,138.798343 L86.9166667,138.798343 L86.9166667,103.02256 C86.9166667,99.6910681 85.9553407,96.3595764 84.8066298,93.2868324 L112.555709,93.2868324 Z M135.93186,106.857735 C134.735727,109.145488 134.853131,111.77256 136.260129,114.153775 L135.322284,115.0686 C131.242634,114.563996 129.63674,108.476519 129.63674,108.476519 C129.554328,109.028085 129.507366,109.555709 129.519337,110.095304 C127.139042,109.21547 125.639042,107.104512 125.755985,104.206722 C126.65884,104.711326 127.667127,105.063536 128.745396,105.250921 L129.027164,103.467772 C126.178177,102.975138 124.513352,101.192449 123.880295,99.0810313 C123.739411,99.0690608 123.622468,99.03407 123.493094,99.0225599 C123.997698,99.0575506 124.501381,99.104512 125.017495,99.104512 C126.705801,99.104512 128.311694,98.8462247 129.812155,98.4005525 C130.996317,100.089779 133.094843,101.297882 135.20488,101.532689 C134.865101,102.940147 135.029006,104.687845 135.93186,106.857735 Z M141.969613,122.950737 C141.558932,123.502302 141.230663,124.13582 141.019337,124.827808 L138.745396,126.915746 C139.202578,123.584715 136.963628,119.654696 134.923573,118.047882 L137.338858,115.678637 L137.819061,116.171271 C137.010129,118.294199 138.593002,122.458564 141.969613,122.950737 Z M130.984807,121.907459 L132.860497,120.065378 C134.759208,121.731123 137.268416,125.449355 136.482965,128.992173 L134.44291,130.868785 C134.020718,131.279006 133.587477,131.572284 133.141805,131.842081 C134.419429,128.686464 132.790055,123.831031 130.984807,121.907459 Z M126.951657,123.467311 L127.010589,123.467311 C127.690608,123.572744 128.417127,123.455341 129.073665,123.185543 C130.503683,125.226519 131.617864,129.871547 129.906077,132.768877 C128.933241,132.792357 127.983425,132.616483 127.092081,132.358656 L126.389042,132.146869 C127.831031,129.906998 127.631676,125.942449 126.951657,123.467311 Z M122.22744,122.880755 L124.865101,123.209024 C125.287293,125.402394 125.005985,129.191068 123.610497,131.349908 L120.539134,130.458103 C121.887201,128.628453 122.520258,124.86326 122.22744,122.880755 Z M116.729282,122.212247 L119.929558,122.587477 C120.245856,124.346685 119.64825,128.088398 118.440608,129.871547 L115.1814,128.933241 C116.482505,127.209024 116.951657,124.17081 116.729282,122.212247 Z M103.774862,121.355433 C102.285912,121.836556 101.629374,120.757366 101.688306,119.842541 C104.607274,118.775322 105.908379,119.467311 106.764273,120.006906 C107.549724,120.49954 108.206262,121.907459 109.26105,122.786832 C109.085635,123.982965 108.722376,125.719153 108.288214,126.880755 C105.298803,126.117864 105.146409,123.478821 106.260129,121.872007 C105.638582,121.144567 104.982505,120.956722 103.774862,121.355433 Z M101.688306,127.185543 C101.688306,127.185543 102.578729,127.560773 103.70442,127.643186 C103.575506,128.264733 103.094843,128.851289 102.332873,128.686464 C101.699816,128.546041 101.418508,127.771639 101.688306,127.185543 Z M98.7453959,118.622468 C98.0069061,118.130295 98.335175,117.051105 99.1560773,117.051105 C100.058471,117.074586 101.254144,118.094843 102.438306,118.598987 C102.438306,118.598987 99.3314917,119.021639 98.7453959,118.622468 Z M101.782228,124.839779 C102.426796,125.461326 104.360958,125.226519 104.360958,125.226519 L104.4314,125.61372 C103.587017,126.739411 101.242634,126.235267 101.782228,124.839779 Z M104.384438,123.561234 C103.000921,124.112339 101.582413,123.361418 102.016114,122.470074 C102.661142,123.05663 104.45488,122.763352 104.45488,122.763352 L104.384438,123.561234 Z M106.424494,107.456262 L103.774862,117.109576 L104.677716,101.532689 L108.780387,98.0257827 L110.867403,102.611878 L105.591621,117.743094 L106.987109,107.561694 C107.116022,106.834254 106.541436,106.752302 106.424494,107.456262 Z M106.611878,119.162523 C106.611878,119.162523 109.565838,119.021639 110.398711,119.337937 C111.008287,119.596225 110.597606,120.628453 109.800184,120.51151 C108.968232,120.405617 106.611878,119.162523 106.611878,119.162523 Z M111.242634,121.508287 L114.45442,121.907459 C114.701197,123.666206 114.243554,126.645948 113.094383,128.311694 L109.988029,127.408379 C110.808471,125.449355 111.008287,123.608195 111.242634,121.508287 Z M163.094843,164.357274 C163.094843,171.816759 159.64779,177.482965 153.915746,180.626151 L155.966851,176.450276 L153.973757,176.450276 L151.336096,181.799263 C148.604972,182.831492 145.509669,183.406077 142.086556,183.406077 C131.629374,183.406077 128.862799,183.828269 124.994015,187.687385 C121.11326,183.828269 118.347145,183.406077 107.901473,183.406077 C104.501381,183.406077 101.406998,182.854972 98.6869245,181.822744 L98.7573665,181.822744 L101.395028,176.450276 L99.4139042,176.450276 L97.104512,181.154236 C96.5529466,180.895948 96.0138122,180.61418 95.4981584,180.309392 L97.3973297,176.450276 L95.4277164,176.450276 L94.0211786,179.324125 C89.5423573,176.028085 86.9046961,170.866943 86.9046961,164.357274 L86.9046961,140.89733 L163.071363,140.89733 L163.071363,164.357274 L163.094843,164.357274 Z M165.21639,93.2868324 C164.032689,96.3595764 163.082873,99.6910681 163.082873,103.02256 L163.082873,138.798343 L158.92081,138.798343 C157.03361,136.968232 155.439227,130.868785 155.439227,130.868785 C154.407919,133.062155 155.591621,137.507366 156.693831,138.798343 L151.336096,138.798343 C150.01151,137.003223 148.862799,130.645948 148.862799,130.645948 C147.256906,132.475599 148.276703,137.413904 149.27302,138.798343 L145.709024,138.798343 C145.486188,136.252762 146.213168,133.484346 146.213168,133.484346 C144.348987,133.144107 142.367864,132.15884 142.379374,130.094383 C143.317219,130.974217 143.70442,130.962707 145.005525,130.939227 L146.517956,129.742173 C141.50046,129.906998 141.266114,124.393646 145.251842,121.813076 C141.277624,121.941989 138.311694,119.573204 139.753683,115.349908 C136.928637,113.883517 135.93186,109.098527 138.018416,106.998619 C136.506446,105.356354 136.260129,102.130755 137.221455,99.9373849 C135.216851,99.9373849 132.96593,99.1395028 131.711326,97.767035 C131.617864,97.8139963 131.50046,97.8494475 131.394567,97.8844383 C133.903775,96.8641805 136.025322,95.2688766 137.455801,93.2983425 L165.21639,93.2983425 L165.21639,93.2868324 Z M150.046501,76.0672192 C145.92035,76.7831492 142.367864,81.8379374 139.460405,86.4010129 L139.132136,86.9286372 L136.025322,86.9286372 L136.014273,87.4686924 C135.697053,90.9871087 132.356354,95.7615101 124.994015,95.7615101 C121.594383,95.7615101 119.027164,94.7173112 117.268416,93.2983425 C115.744475,92.0547882 114.782689,90.5184162 114.313996,89.0520258 C114.138122,88.5244015 114.032689,87.9843462 113.985727,87.4686924 L113.962247,86.9286372 L110.878913,86.9286372 L110.550645,86.4010129 C107.631676,81.8499079 104.07965,76.7941989 99.9645488,76.0672192 L111.207182,69.5336096 L125.017495,77.0409761 L138.803867,69.5336096 L150.046501,76.0672192 Z M137.174494,66.3084715 L126.166206,72.1022099 L126.166206,48.6781768 L141.12523,43.587477 L137.174494,66.3084715 Z M125.005985,46.1210866 L108.651934,39.6582413 C110.034991,36.3735727 116.447514,33.5703039 125.005985,33.5703039 C133.552026,33.5703039 139.953039,36.3735727 141.336096,39.6582413 L125.005985,46.1210866 Z" id="Shape" fill="#000000"></path>
                    <path d="M161.347606,116.405617 L161.382597,114.610497 C155.884438,114.481584 154.618785,107.994936 154.618785,107.994936 C153.011971,112.768877 157.209484,116.334715 161.347606,116.405617 Z" id="Path" fill="#000000"></path>
                    <path d="M154.406538,127.395948 L153.855893,125.695672 C149.166667,126.891805 146.740331,119.455341 146.740331,119.455341 C145.239411,124.862799 150.467772,128.686924 154.406538,127.395948 Z" id="Path" fill="#000000"></path>
                    <path d="M157.666667,120.499079 C152.063076,121.390424 149.765654,114.869245 149.765654,114.869245 C149.144107,118.423112 151.441989,122.023941 155.158379,122.399171 C154.313996,127.033149 158.616483,129.413444 162.344383,127.759669 L161.805249,126.141344 C158.569521,127.232044 155.53361,124.029466 157.666667,120.499079 Z" id="Path" fill="#000000"></path>
                    <path d="M154.313076,101.884438 L154.360037,100.089779 C146.962247,98.5649171 147.583794,93.4742173 147.583794,93.4742173 C145.989411,98.271639 150.186004,101.814457 154.313076,101.884438 Z" id="Path" fill="#000000"></path>
                    <polygon id="Path" fill="#000000" points="107.44337 176.450276 104.794199 181.822744 106.786832 181.822744 109.424954 176.450276"></polygon>
                    <polygon id="Path" fill="#000000" points="111.441529 176.450276 108.803867 181.822744 110.808471 181.822744 113.422652 176.450276"></polygon>
                    <polygon id="Path" fill="#000000" points="127.455801 176.450276 124.81768 181.822744 126.799263 181.822744 129.448435 176.450276"></polygon>
                    <polygon id="Path" fill="#000000" points="131.464088 176.450276 128.802947 181.822744 130.807551 181.822744 133.433241 176.450276"></polygon>
                    <polygon id="Path" fill="#000000" points="123.457182 176.450276 120.808471 181.822744 122.800645 181.822744 125.438306 176.450276"></polygon>
                    <polygon id="Path" fill="#000000" points="146.844843 181.822744 148.837477 181.822744 151.475599 176.450276 149.482505 176.450276"></polygon>
                    <polygon id="Path" fill="#000000" points="115.451197 176.450276 112.813536 181.822744 114.806169 181.822744 117.443831 176.450276"></polygon>
                    <polygon id="Path" fill="#000000" points="119.436464 176.450276 116.798803 181.822744 118.803407 181.822744 121.441068 176.450276"></polygon>
                    <path d="M110.38628,147.572284 C110.02302,147.572284 109.706262,147.924033 109.706262,148.381676 C109.706262,148.827348 110.02302,149.191068 110.38628,149.191068 C110.76151,149.191068 111.089779,148.827348 111.089779,148.381676 C111.078269,147.924033 110.76151,147.572284 110.38628,147.572284 Z" id="Path" fill="#000000"></path>
                    <path d="M125.005985,26.321639 C133.212247,26.321639 139.788674,29.0425875 143.411142,31.963582 C143.411142,31.963582 144.501842,25.4416206 148.171271,19.7178637 L141.558932,20.4567219 L138.100368,13.0901934 L131.453499,16.5504604 L125.005985,10.1462247 L118.558011,16.5504604 L111.887201,13.0901934 L108.429098,20.4567219 L101.816759,19.7178637 C105.498158,25.4416206 106.576427,31.963582 106.576427,31.963582 C110.210866,29.0425875 116.799263,26.321639 125.005985,26.321639 Z M109.565838,23.3891805 L112.720074,16.7030847 L118.558011,19.8116483 L125.005985,13.4423573 L131.453499,19.8116483 L137.291897,16.7030847 L140.410221,23.3891805 L144.290976,22.7910221 C143.294199,24.6558471 142.543738,26.2862339 141.85221,28.5736188 C137.608656,26.0986648 131.301105,24.1869245 125.005985,24.1869245 C118.686924,24.1869245 112.391805,26.0986648 108.14733,28.5736188 C107.444291,26.2862339 106.705801,24.6558471 105.697514,22.7910221 L109.565838,23.3891805 Z" id="Shape" fill="#000000"></path>
                    <path d="M131.757827,13.1489411 C132.718692,13.2312615 133.574586,12.5038674 133.656538,11.5534991 C133.75046,10.5916667 132.343462,8.03485267 132.343462,8.03485267 C132.343462,8.03485267 130.244936,10.2988029 130.174494,11.2606354 C130.081031,12.1990331 130.807551,13.0551565 131.757827,13.1489411 Z" id="Path" fill="#000000"></path>
                    <path d="M142.588858,17.0789595 C143.445212,17.5359576 144.48849,17.1961786 144.945672,16.3395948 C145.414365,15.4950276 145.109576,12.5979742 145.109576,12.5979742 C145.109576,12.5979742 142.319521,13.8531768 141.862799,14.7092541 C141.417127,15.5538674 141.745396,16.6095304 142.588858,17.0789595 Z" id="Path" fill="#000000"></path>
                    <path d="M118.242173,13.1489411 C119.215009,13.0551565 119.930018,12.2105433 119.848066,11.2606354 C119.754604,10.2988029 117.679558,8.03485267 117.679558,8.03485267 C117.679558,8.03485267 116.28407,10.6035912 116.366483,11.5534991 C116.436924,12.5038674 117.292357,13.2312615 118.242173,13.1489411 Z" id="Path" fill="#000000"></path>
                    <path d="M107.42035,17.0789595 C108.276243,16.6095304 108.593002,15.5538674 108.14733,14.7092541 C107.701657,13.8531768 104.900092,12.5979742 104.900092,12.5979742 C104.900092,12.5979742 104.607274,15.4950276 105.075967,16.3395948 C105.509669,17.1961786 106.564917,17.5359576 107.42035,17.0789595 Z" id="Path" fill="#000000"></path>
                    <path d="M237.373849,76.6657459 C239.683241,75.8443831 241.465009,73.6395028 242.355893,71.5985267 C236.482965,70.7541436 220.878453,64.1970534 208.053407,69.53407 C212.860497,64.9714549 217.174494,64.3848987 217.584254,57.8162983 C219.577348,59.2472376 222.941989,60.0566298 224.841621,56.6436464 C223.517035,52.7371087 220.175414,55.9042357 219.706722,54.825046 C219.050184,53.3236648 223.914825,55.2826888 224.958564,50.2039595 C221.172192,48.9014733 220.046501,51.9981584 219.366483,51.2826888 C218.745396,50.6022099 221.769797,49.3001842 219.542818,45.2069521 C215.603131,47.5174954 217.654696,50.1100368 216.822744,50.4028545 C215.814457,50.8020258 216.611418,47.6229282 212.25046,47.7757827 C211.816759,52.4558011 216.342081,52.6081952 215.603131,53.3471455 C214.700737,54.2504604 213.528545,50.6611418 210.234346,52.4792818 C210.292357,56.2564457 213.35221,58.3319521 216.506446,57.4406077 C215.990331,64.6197053 209.401934,63.2822284 204.501381,71.3756906 C214.888582,76.7011971 219.589319,85.9907919 225.978361,92.4189687 C228.088858,90.9175875 231.699355,84.2550645 231.699355,84.2550645 C238.616022,89.6155617 243.481123,84.2780847 243.481123,84.2780847 C241.10175,81.8388582 241.007827,79.985267 237.373849,76.6657459 Z M227.291436,77.9677716 C228.006446,79.5515654 229.425414,85.0759669 226.037293,89.2872928 C222.180479,81.5805709 216.881215,74.9769797 212.590239,72.1266114 C211.652394,71.5165746 213.106354,70.4493554 215.755985,70.0976059 C223.739411,68.5842541 233.106354,71.9622468 237.561234,73.1473297 C235.485727,74.6952118 233.798343,75.3991713 231.675875,75.6569982 C234.911602,78.378453 237.279926,80.677256 238.944291,83.2348066 C235.814457,84.0202578 234.044199,82.0382136 227.291436,77.9677716 Z" id="Shape" fill="#000000"></path>
                    <path d="M160.598066,197.775322 L160.598066,189.001381 C153.821823,192.109576 145.20488,194.631215 134.115101,195.628913 L133.610958,198.760589 C134.548343,198.889503 135.744475,199.006906 137.338858,199.112339 C133.235727,199.675875 127.924954,199.945212 125.017495,199.945212 C122.098527,199.945212 116.799724,199.675875 112.684622,199.112339 C114.267035,199.006906 115.463168,198.889503 116.401013,198.760589 L115.89733,195.628913 C104.80663,194.631215 96.1781768,192.109576 89.4139042,189.001381 L89.4139042,197.775322 L80.2228361,201.552026 C87.0345304,205.094383 94.8655617,207.980203 103.915746,210.314457 L102.837017,213.985727 C108.018877,215.51105 116.30709,217.058932 124.994015,217.058932 C133.6814,217.058932 141.957643,215.499079 147.151013,213.985727 L146.084715,210.314457 C155.122928,207.980203 162.977901,205.094383 169.788674,201.552026 L160.598066,197.775322 Z M85.1348987,201.751381 L91.3370166,199.253223 L91.3370166,192.109576 C95.322744,193.645948 100.551105,195.241713 108.053867,196.801565 L104.537293,208.26151 C96.8816759,206.501842 90.3756906,204.132597 85.1348987,201.751381 Z M125.005985,214.959024 C118.006906,214.959024 111.172652,213.915285 105.334254,212.472836 L109.050645,200.449355 C111.512431,201.024401 117.678637,201.774862 125.005985,201.774862 C132.344843,201.774862 138.475599,201.012891 140.949355,200.449355 L144.677716,212.472836 C138.815838,213.915285 131.993094,214.959024 125.005985,214.959024 Z M145.486188,208.26151 L141.969613,196.801565 C149.472376,195.253683 154.701197,193.645948 158.687385,192.109576 L158.687385,199.253223 L164.877072,201.751381 C159.63674,204.132597 153.153315,206.501842 145.486188,208.26151 Z" id="Shape" fill="#000000"></path>
                    <path d="M18.3103131,84.2550645 C18.3103131,84.2550645 21.9208103,90.9175875 24.0197974,92.4189687 C30.4208103,86.0027624 35.1330571,76.7127072 45.5082873,71.3756906 C40.5962247,63.2822284 34.0078269,64.643186 33.5151934,57.4406077 C36.6689687,58.3319521 39.7173112,56.2444751 39.7872928,52.4792818 C36.4811234,50.6611418 35.3093923,54.2739411 34.4185083,53.3471455 C33.679558,52.585175 38.1929098,52.4558011 37.7711786,47.7757827 C33.410221,47.6348987 34.2071823,50.8020258 33.1869245,50.4028545 C32.3664825,50.1100368 34.4185083,47.5059853 30.4677716,45.2069521 C28.2518416,49.3121547 31.2882136,50.6022099 30.6551565,51.2826888 C29.9866483,51.9981584 28.837477,48.9129834 25.0630755,50.2039595 C26.0828729,55.2826888 30.9714549,53.3236648 30.3149171,54.825046 C29.8457643,55.9042357 26.5165746,52.7371087 25.2034991,56.6436464 C27.0796501,60.06814 30.4558011,59.2592081 32.4369245,57.8278085 C32.8586556,64.407919 37.1611418,64.9594843 41.9797422,69.53407 C29.1427256,64.1970534 13.5391344,70.7541436 7.64180479,71.6104972 C8.54511971,73.6395028 10.3268877,75.8448435 12.6362799,76.6422652 C9.00184162,79.9972376 8.90837937,81.8503683 6.52854512,84.2780847 C6.52854512,84.2780847 11.3816759,89.6155617 18.3103131,84.2550645 Z M11.0418969,83.2463168 C12.718232,80.6892265 15.0745856,78.378453 18.3337937,75.6689687 C16.2002762,75.3991713 14.5239411,74.6952118 12.4369245,73.1473297 C16.9033149,71.9622468 26.2822284,68.5722836 34.2776243,70.0976059 C36.9033149,70.4493554 38.3807551,71.5165746 37.4194291,72.1266114 C33.1289134,74.9769797 27.81814,81.5805709 23.9608656,89.2872928 C20.5847145,85.0759669 22.014733,79.5630755 22.7067219,77.9797422 C15.9654696,82.0382136 14.2076427,84.0202578 11.0418969,83.2463168 Z" id="Shape" fill="#000000"></path>
                    <path d="M119.389042,79.3632597 L119.389042,83.2228361 C120.713628,81.6155617 123.293278,81.9323204 123.293278,81.9323204 L123.293278,87.5041436 C123.293278,87.5041436 123.199355,90.2486188 122.238029,91.4217311 L125.016575,91.4217311 L127.794659,91.4217311 C126.821823,90.2486188 126.739411,87.5041436 126.739411,87.5041436 L126.739411,81.9438306 C126.739411,81.9438306 129.30709,81.6270718 130.632136,83.2338858 L130.632136,79.3752302 L125.016575,79.3752302 L119.389042,79.3752302 L119.389042,79.3632597 Z" id="Path" fill="#000000"></path>
                </g>
            </g>
        </g>
    </g>
</svg>