<?xml version="1.0" standalone="no"?><!DOCTYPE svg PUBLIC "-//W3C//DTD SVG 1.1//EN" "http://www.w3.org/Graphics/SVG/1.1/DTD/svg11.dtd"><svg t="1564725125717" class="icon" viewBox="0 0 1024 1024" version="1.1" xmlns="http://www.w3.org/2000/svg" p-id="4653" xmlns:xlink="http://www.w3.org/1999/xlink" width="200" height="200"><defs><style type="text/css"></style></defs><path d="M512 0A512 512 0 1 1 0 512 512 512 0 0 1 512 0z" fill="#53AE94" p-id="4654"></path><path d="M580.551111 409.6v-82.204444h189.155556V201.386667H256v126.008889h187.733333v82.204444c-153.6 7.395556-268.231111 37.831111-268.231111 74.24s117.191111 66.844444 269.084445 73.955556v264.817777h137.102222v-263.111111c153.315556-7.395556 268.515556-37.831111 268.515555-74.24s-116.053333-67.982222-269.368888-75.662222m0 125.44c-4.266667 0-23.893333 1.422222-67.982223 1.422222-35.271111 0-60.302222 0-69.12-1.422222-135.68-5.973333-236.942222-28.444444-236.942222-56.888889s101.546667-52.053333 236.942222-58.595555V512c9.102222 0 34.702222 1.991111 69.688889 1.991111 42.097778 0 63.146667-1.706667 67.413334-1.991111v-92.444444c135.395556 6.257778 236.373333 28.444444 236.373333 58.595555s-100.977778 51.768889-236.373333 58.311111" fill="#FFFFFF" p-id="4655"></path></svg>